# MagicaVoxel @ Ephtracy

# material
mtllib Tree.mtl
usemtl palette

# normals
vn -1 0 0
vn 1 0 0
vn 0 0 1
vn 0 0 -1
vn 0 -1 0
vn 0 1 0

# texcoords
vt 0.373047 0.5
vt 0.841797 0.5
vt 0.884766 0.5
vt 0.888672 0.5

# verts
v -4 7 3
v -4 7 -3
v -4 8 4
v -4 8 3
v -4 8 1
v -4 8 -0
v -4 8 -2
v -4 8 -3
v -4 8 -4
v -4 9 -2
v -4 9 -3
v -4 10 -0
v -4 10 -1
v -4 11 1
v -4 11 -0
v -4 11 -1
v -4 12 1
v -4 12 -0
v -4 12 -2
v -4 13 4
v -4 13 3
v -4 13 -0
v -4 13 -2
v -4 13 -3
v -4 13 -4
v -4 14 3
v -4 14 -3
v -3 7 4
v -3 7 3
v -3 7 -3
v -3 7 -4
v -3 8 4
v -3 8 3
v -3 8 -3
v -3 8 -4
v -3 13 4
v -3 13 3
v -3 13 -3
v -3 13 -4
v -3 14 4
v -3 14 3
v -3 14 -3
v -3 14 -4
v -1 0 1
v -1 0 -1
v -1 7 1
v -1 7 -1
v 1 0 1
v 1 0 -1
v 1 7 1
v 1 7 -1
v 3 7 4
v 3 7 3
v 3 7 -3
v 3 7 -4
v 3 8 4
v 3 8 3
v 3 8 -3
v 3 8 -4
v 3 13 4
v 3 13 3
v 3 13 -3
v 3 13 -4
v 3 14 4
v 3 14 3
v 3 14 -3
v 3 14 -4
v 4 7 3
v 4 7 -3
v 4 8 4
v 4 8 3
v 4 8 2
v 4 8 1
v 4 8 -3
v 4 8 -4
v 4 9 2
v 4 9 1
v 4 9 -1
v 4 9 -3
v 4 10 2
v 4 10 1
v 4 10 -0
v 4 10 -1
v 4 10 -2
v 4 10 -3
v 4 11 3
v 4 11 2
v 4 11 -1
v 4 11 -2
v 4 11 -3
v 4 12 3
v 4 12 1
v 4 12 -0
v 4 12 -1
v 4 12 -2
v 4 12 -3
v 4 13 4
v 4 13 3
v 4 13 -3
v 4 13 -4
v 4 14 3
v 4 14 -3
v -4 8 4
v -4 13 4
v -3 7 4
v -3 8 4
v -3 9 4
v -3 10 4
v -3 13 4
v -3 14 4
v -1 8 4
v -1 9 4
v -1 10 4
v -1 11 4
v -1 12 4
v 0 8 4
v 0 9 4
v 0 11 4
v 0 12 4
v 0 13 4
v 1 8 4
v 1 10 4
v 2 8 4
v 2 10 4
v 2 11 4
v 2 12 4
v 2 13 4
v 3 7 4
v 3 8 4
v 3 11 4
v 3 12 4
v 3 13 4
v 3 14 4
v 4 8 4
v 4 13 4
v -4 7 3
v -4 8 3
v -4 13 3
v -4 14 3
v -3 7 3
v -3 8 3
v -3 13 3
v -3 14 3
v 3 7 3
v 3 8 3
v 3 13 3
v 3 14 3
v 4 7 3
v 4 8 3
v 4 13 3
v 4 14 3
v -1 0 1
v -1 7 1
v 1 0 1
v 1 7 1
v -1 0 -1
v -1 7 -1
v 1 0 -1
v 1 7 -1
v -4 7 -3
v -4 8 -3
v -4 13 -3
v -4 14 -3
v -3 7 -3
v -3 8 -3
v -3 13 -3
v -3 14 -3
v 3 7 -3
v 3 8 -3
v 3 13 -3
v 3 14 -3
v 4 7 -3
v 4 8 -3
v 4 13 -3
v 4 14 -3
v -4 8 -4
v -4 13 -4
v -3 7 -4
v -3 8 -4
v -3 13 -4
v -3 14 -4
v -1 10 -4
v -1 13 -4
v 0 10 -4
v 0 12 -4
v 1 7 -4
v 1 8 -4
v 1 12 -4
v 1 13 -4
v 2 7 -4
v 2 8 -4
v 2 10 -4
v 2 11 -4
v 3 7 -4
v 3 8 -4
v 3 10 -4
v 3 11 -4
v 3 13 -4
v 3 14 -4
v 4 8 -4
v 4 13 -4
v -1 0 1
v 1 0 1
v -1 0 -1
v 1 0 -1
v -3 7 4
v 3 7 4
v -4 7 3
v -3 7 3
v 3 7 3
v 4 7 3
v -1 7 1
v 1 7 1
v -1 7 -1
v 1 7 -1
v -4 7 -3
v -3 7 -3
v 1 7 -3
v 2 7 -3
v 3 7 -3
v 4 7 -3
v -3 7 -4
v 1 7 -4
v 2 7 -4
v 3 7 -4
v -4 8 4
v -3 8 4
v 3 8 4
v 4 8 4
v -4 8 3
v -3 8 3
v 3 8 3
v 4 8 3
v -4 8 -3
v -3 8 -3
v 3 8 -3
v 4 8 -3
v -4 8 -4
v -3 8 -4
v 3 8 -4
v 4 8 -4
v -4 13 4
v -3 13 4
v 3 13 4
v 4 13 4
v -4 13 3
v -3 13 3
v 3 13 3
v 4 13 3
v -4 13 -3
v -3 13 -3
v 3 13 -3
v 4 13 -3
v -4 13 -4
v -3 13 -4
v 3 13 -4
v 4 13 -4
v -3 14 4
v 3 14 4
v -4 14 3
v -3 14 3
v 0 14 3
v 1 14 3
v 3 14 3
v 4 14 3
v -1 14 2
v 0 14 2
v 1 14 2
v -1 14 -2
v 0 14 -2
v -4 14 -3
v -3 14 -3
v 3 14 -3
v 4 14 -3
v -3 14 -4
v 3 14 -4

# faces
f 4/4/1 2/4/1 1/4/1
f 5/4/1 2/4/1 4/4/1
f 6/4/1 2/4/1 5/4/1
f 7/4/1 2/4/1 6/4/1
f 8/4/1 2/4/1 7/4/1
f 10/4/1 7/4/1 6/4/1
f 10/2/1 8/2/1 7/2/1
f 11/4/1 9/4/1 8/4/1
f 11/2/1 8/2/1 10/2/1
f 12/3/1 6/3/1 5/3/1
f 12/4/1 10/4/1 6/4/1
f 12/4/1 11/4/1 10/4/1
f 13/4/1 11/4/1 12/4/1
f 14/4/1 4/4/1 3/4/1
f 14/4/1 5/4/1 4/4/1
f 14/3/1 13/3/1 12/3/1
f 14/3/1 12/3/1 5/3/1
f 15/3/1 13/3/1 14/3/1
f 16/4/1 11/4/1 13/4/1
f 16/3/1 13/3/1 15/3/1
f 17/2/1 15/2/1 14/2/1
f 17/4/1 14/4/1 3/4/1
f 18/4/1 16/4/1 15/4/1
f 18/2/1 15/2/1 17/2/1
f 19/4/1 11/4/1 16/4/1
f 19/4/1 16/4/1 18/4/1
f 20/4/1 18/4/1 17/4/1
f 20/4/1 17/4/1 3/4/1
f 21/4/1 18/4/1 20/4/1
f 22/3/1 19/3/1 18/3/1
f 22/4/1 18/4/1 21/4/1
f 23/4/1 11/4/1 19/4/1
f 23/3/1 19/3/1 22/3/1
f 24/4/1 9/4/1 11/4/1
f 24/4/1 11/4/1 23/4/1
f 25/4/1 9/4/1 24/4/1
f 26/4/1 22/4/1 21/4/1
f 26/4/1 23/4/1 22/4/1
f 26/4/1 24/4/1 23/4/1
f 27/4/1 24/4/1 26/4/1
f 32/4/1 29/4/1 28/4/1
f 33/4/1 29/4/1 32/4/1
f 34/4/1 31/4/1 30/4/1
f 35/4/1 31/4/1 34/4/1
f 40/4/1 37/4/1 36/4/1
f 41/4/1 37/4/1 40/4/1
f 42/4/1 39/4/1 38/4/1
f 43/4/1 39/4/1 42/4/1
f 46/1/1 45/1/1 44/1/1
f 47/1/1 45/1/1 46/1/1
f 48/1/2 49/1/2 50/1/2
f 50/1/2 49/1/2 51/1/2
f 52/4/2 53/4/2 56/4/2
f 56/4/2 53/4/2 57/4/2
f 54/4/2 55/4/2 58/4/2
f 58/4/2 55/4/2 59/4/2
f 60/4/2 61/4/2 64/4/2
f 64/4/2 61/4/2 65/4/2
f 62/4/2 63/4/2 66/4/2
f 66/4/2 63/4/2 67/4/2
f 68/4/2 69/4/2 71/4/2
f 71/4/2 69/4/2 72/4/2
f 72/4/2 69/4/2 73/4/2
f 73/4/2 69/4/2 74/4/2
f 70/4/2 71/4/2 76/4/2
f 71/4/2 72/4/2 76/4/2
f 72/2/2 73/2/2 76/2/2
f 74/4/2 75/4/2 77/4/2
f 76/2/2 73/2/2 77/2/2
f 73/4/2 74/4/2 77/4/2
f 77/4/2 75/4/2 78/4/2
f 78/4/2 75/4/2 79/4/2
f 70/4/2 76/4/2 80/4/2
f 76/4/2 77/4/2 80/4/2
f 77/4/2 78/4/2 80/4/2
f 80/4/2 78/4/2 81/4/2
f 81/4/2 78/4/2 82/4/2
f 78/3/2 79/3/2 83/3/2
f 82/4/2 78/4/2 83/4/2
f 83/3/2 79/3/2 84/3/2
f 79/4/2 75/4/2 85/4/2
f 84/3/2 79/3/2 85/3/2
f 70/4/2 80/4/2 86/4/2
f 80/3/2 81/3/2 87/3/2
f 86/4/2 80/4/2 87/4/2
f 83/3/2 84/3/2 88/3/2
f 82/3/2 83/3/2 88/3/2
f 84/4/2 85/4/2 89/4/2
f 88/3/2 84/3/2 89/3/2
f 85/4/2 75/4/2 90/4/2
f 89/4/2 85/4/2 90/4/2
f 70/4/2 86/4/2 91/4/2
f 86/3/2 87/3/2 91/3/2
f 87/3/2 81/3/2 92/3/2
f 91/3/2 87/3/2 92/3/2
f 81/4/2 82/4/2 92/4/2
f 82/3/2 88/3/2 93/3/2
f 92/4/2 82/4/2 93/4/2
f 88/4/2 89/4/2 94/4/2
f 93/3/2 88/3/2 94/3/2
f 89/2/2 90/2/2 95/2/2
f 94/4/2 89/4/2 95/4/2
f 90/4/2 75/4/2 96/4/2
f 95/2/2 90/2/2 96/2/2
f 70/4/2 91/4/2 97/4/2
f 91/4/2 92/4/2 97/4/2
f 95/4/2 96/4/2 97/4/2
f 93/4/2 94/4/2 97/4/2
f 94/4/2 95/4/2 97/4/2
f 92/4/2 93/4/2 97/4/2
f 97/4/2 96/4/2 98/4/2
f 96/4/2 75/4/2 99/4/2
f 98/4/2 96/4/2 99/4/2
f 99/4/2 75/4/2 100/4/2
f 98/4/2 99/4/2 101/4/2
f 101/4/2 99/4/2 102/4/2
f 106/4/3 104/4/3 103/4/3
f 107/4/3 104/4/3 106/4/3
f 108/4/3 104/4/3 107/4/3
f 109/4/3 104/4/3 108/4/3
f 111/4/3 106/4/3 105/4/3
f 111/4/3 107/4/3 106/4/3
f 112/3/3 108/3/3 107/3/3
f 112/4/3 107/4/3 111/4/3
f 113/4/3 110/4/3 109/4/3
f 113/3/3 108/3/3 112/3/3
f 113/4/3 109/4/3 108/4/3
f 114/4/3 110/4/3 113/4/3
f 115/4/3 110/4/3 114/4/3
f 116/2/3 112/2/3 111/2/3
f 116/4/3 111/4/3 105/4/3
f 117/4/3 113/4/3 112/4/3
f 117/2/3 112/2/3 116/2/3
f 117/4/3 114/4/3 113/4/3
f 118/3/3 115/3/3 114/3/3
f 118/4/3 114/4/3 117/4/3
f 119/4/3 110/4/3 115/4/3
f 119/3/3 115/3/3 118/3/3
f 120/4/3 110/4/3 119/4/3
f 121/4/3 118/4/3 117/4/3
f 121/4/3 117/4/3 116/4/3
f 121/4/3 116/4/3 105/4/3
f 121/4/3 119/4/3 118/4/3
f 122/4/3 119/4/3 121/4/3
f 123/4/3 121/4/3 105/4/3
f 123/3/3 122/3/3 121/3/3
f 124/4/3 119/4/3 122/4/3
f 124/3/3 122/3/3 123/3/3
f 125/4/3 119/4/3 124/4/3
f 126/3/3 120/3/3 119/3/3
f 126/4/3 119/4/3 125/4/3
f 127/4/3 110/4/3 120/4/3
f 127/3/3 120/3/3 126/3/3
f 128/4/3 125/4/3 124/4/3
f 128/4/3 123/4/3 105/4/3
f 128/4/3 124/4/3 123/4/3
f 129/4/3 125/4/3 128/4/3
f 130/2/3 126/2/3 125/2/3
f 130/4/3 125/4/3 129/4/3
f 131/4/3 127/4/3 126/4/3
f 131/2/3 126/2/3 130/2/3
f 132/4/3 110/4/3 127/4/3
f 132/4/3 127/4/3 131/4/3
f 133/4/3 110/4/3 132/4/3
f 134/4/3 131/4/3 130/4/3
f 134/4/3 132/4/3 131/4/3
f 134/4/3 130/4/3 129/4/3
f 135/4/3 132/4/3 134/4/3
f 140/4/3 137/4/3 136/4/3
f 141/4/3 137/4/3 140/4/3
f 142/4/3 139/4/3 138/4/3
f 143/4/3 139/4/3 142/4/3
f 148/4/3 145/4/3 144/4/3
f 149/4/3 145/4/3 148/4/3
f 150/4/3 147/4/3 146/4/3
f 151/4/3 147/4/3 150/4/3
f 154/1/3 153/1/3 152/1/3
f 155/1/3 153/1/3 154/1/3
f 156/1/4 157/1/4 158/1/4
f 158/1/4 157/1/4 159/1/4
f 160/4/4 161/4/4 164/4/4
f 164/4/4 161/4/4 165/4/4
f 162/4/4 163/4/4 166/4/4
f 166/4/4 163/4/4 167/4/4
f 168/4/4 169/4/4 172/4/4
f 172/4/4 169/4/4 173/4/4
f 170/4/4 171/4/4 174/4/4
f 174/4/4 171/4/4 175/4/4
f 176/4/4 177/4/4 179/4/4
f 179/4/4 177/4/4 180/4/4
f 178/4/4 179/4/4 182/4/4
f 180/4/4 181/4/4 182/4/4
f 179/4/4 180/4/4 182/4/4
f 182/4/4 181/4/4 183/4/4
f 178/4/4 182/4/4 184/4/4
f 182/3/4 183/3/4 184/3/4
f 184/3/4 183/3/4 185/3/4
f 178/4/4 184/4/4 186/4/4
f 184/4/4 185/4/4 186/4/4
f 186/4/4 185/4/4 187/4/4
f 185/3/4 183/3/4 188/3/4
f 187/4/4 185/4/4 188/4/4
f 183/4/4 181/4/4 189/4/4
f 188/3/4 183/3/4 189/3/4
f 186/2/4 187/2/4 190/2/4
f 187/4/4 188/4/4 191/4/4
f 190/2/4 187/2/4 191/2/4
f 188/4/4 189/4/4 191/4/4
f 191/4/4 189/4/4 192/4/4
f 192/4/4 189/4/4 193/4/4
f 190/4/4 191/4/4 194/4/4
f 191/4/4 192/4/4 194/4/4
f 194/4/4 192/4/4 195/4/4
f 192/2/4 193/2/4 196/2/4
f 195/4/4 192/4/4 196/4/4
f 193/4/4 189/4/4 197/4/4
f 196/2/4 193/2/4 197/2/4
f 189/4/4 181/4/4 198/4/4
f 197/4/4 189/4/4 198/4/4
f 198/4/4 181/4/4 199/4/4
f 196/4/4 197/4/4 200/4/4
f 195/4/4 196/4/4 200/4/4
f 197/4/4 198/4/4 200/4/4
f 200/4/4 198/4/4 201/4/4
f 204/1/5 203/1/5 202/1/5
f 205/1/5 203/1/5 204/1/5
f 209/4/5 207/4/5 206/4/5
f 210/4/5 207/4/5 209/4/5
f 212/4/5 209/4/5 208/4/5
f 212/4/5 211/4/5 210/4/5
f 212/4/5 210/4/5 209/4/5
f 213/4/5 211/4/5 212/4/5
f 214/4/5 212/4/5 208/4/5
f 215/4/5 211/4/5 213/4/5
f 216/4/5 214/4/5 208/4/5
f 216/4/5 215/4/5 214/4/5
f 217/4/5 215/4/5 216/4/5
f 218/4/5 211/4/5 215/4/5
f 218/4/5 215/4/5 217/4/5
f 219/4/5 211/4/5 218/4/5
f 220/4/5 211/4/5 219/4/5
f 221/4/5 211/4/5 220/4/5
f 222/4/5 218/4/5 217/4/5
f 223/2/5 219/2/5 218/2/5
f 223/4/5 218/4/5 222/4/5
f 224/4/5 220/4/5 219/4/5
f 224/2/5 219/2/5 223/2/5
f 225/4/5 220/4/5 224/4/5
f 230/4/5 227/4/5 226/4/5
f 231/4/5 227/4/5 230/4/5
f 232/4/5 229/4/5 228/4/5
f 233/4/5 229/4/5 232/4/5
f 238/4/5 235/4/5 234/4/5
f 239/4/5 235/4/5 238/4/5
f 240/4/5 237/4/5 236/4/5
f 241/4/5 237/4/5 240/4/5
f 242/4/6 243/4/6 246/4/6
f 246/4/6 243/4/6 247/4/6
f 244/4/6 245/4/6 248/4/6
f 248/4/6 245/4/6 249/4/6
f 250/4/6 251/4/6 254/4/6
f 254/4/6 251/4/6 255/4/6
f 252/4/6 253/4/6 256/4/6
f 256/4/6 253/4/6 257/4/6
f 258/4/6 259/4/6 261/4/6
f 261/4/6 259/4/6 262/4/6
f 262/4/6 259/4/6 263/4/6
f 263/4/6 259/4/6 264/4/6
f 260/4/6 261/4/6 266/4/6
f 261/4/6 262/4/6 266/4/6
f 262/3/6 263/3/6 267/3/6
f 266/4/6 262/4/6 267/4/6
f 264/4/6 265/4/6 268/4/6
f 267/3/6 263/3/6 268/3/6
f 263/4/6 264/4/6 268/4/6
f 266/3/6 267/3/6 269/3/6
f 260/4/6 266/4/6 269/4/6
f 267/4/6 268/4/6 270/4/6
f 269/3/6 267/3/6 270/3/6
f 260/4/6 269/4/6 271/4/6
f 269/4/6 270/4/6 271/4/6
f 271/4/6 270/4/6 272/4/6
f 268/4/6 265/4/6 273/4/6
f 272/4/6 270/4/6 273/4/6
f 270/4/6 268/4/6 273/4/6
f 273/4/6 265/4/6 274/4/6
f 272/4/6 273/4/6 275/4/6
f 275/4/6 273/4/6 276/4/6
